<svg width="182" height="140" viewBox="0 0 182 140" fill="none" xmlns="http://www.w3.org/2000/svg">
<path d="M113.314 0.147461C117.287 0.147461 120.528 1.44342 123.038 4.03533C125.547 6.62725 126.802 9.99674 126.802 14.1438V98.7439C126.802 102.684 125.651 105.794 123.351 108.075C121.051 110.356 118.019 111.496 114.255 111.496C110.596 111.496 107.564 110.356 105.159 108.075C102.859 105.794 101.709 102.684 101.709 98.7439V53.0225L83.8303 85.6807C82.0529 88.9983 80.171 91.3829 78.1845 92.8344C76.198 94.1822 73.8455 94.8561 71.1272 94.8561C68.4088 94.8561 66.0564 94.1822 64.0699 92.8344C62.0834 91.3829 60.2014 88.9983 58.424 85.6807L40.7023 53.9556V98.7439C40.7023 102.58 39.5 105.69 37.0952 108.075C34.7951 110.356 31.7631 111.496 27.9992 111.496C24.3398 111.496 21.3078 110.356 18.9031 108.075C16.6029 105.794 15.4528 102.684 15.4528 98.7439V14.1438C15.4528 9.99674 16.7075 6.62725 19.2167 4.03533C21.8305 1.44342 25.124 0.147461 29.097 0.147461C31.9199 0.147461 34.4814 0.976876 36.7816 2.6357C39.0817 4.19085 41.016 6.47174 42.5843 9.47836L71.4408 63.2865L100.141 9.47836C103.382 3.25776 107.773 0.147461 113.314 0.147461Z" fill="white"/>
<path fill-rule="evenodd" clip-rule="evenodd" d="M12.0189 18.5573C12.0189 21.8762 9.32835 24.5667 6.00943 24.5667C2.69052 24.5667 0 21.8762 0 18.5573C0 15.2384 2.69052 12.5479 6.00943 12.5479C9.32835 12.5479 12.0189 15.2384 12.0189 18.5573ZM12.0189 93.3416C12.0189 96.6605 9.32835 99.351 6.00943 99.351C2.69052 99.351 0 96.6605 0 93.3416C0 90.0226 2.69052 87.3321 6.00943 87.3321C9.32835 87.3321 12.0189 90.0226 12.0189 93.3416ZM6.00943 80.6549C9.32835 80.6549 12.0189 77.9644 12.0189 74.6455C12.0189 71.3266 9.32835 68.6361 6.00943 68.6361C2.69052 68.6361 0 71.3266 0 74.6455C0 77.9644 2.69052 80.6549 6.00943 80.6549ZM12.0189 37.2534C12.0189 40.5723 9.32835 43.2628 6.00943 43.2628C2.69052 43.2628 0 40.5723 0 37.2534C0 33.9345 2.69052 31.2439 6.00943 31.2439C9.32835 31.2439 12.0189 33.9345 12.0189 37.2534ZM6.00943 61.9589C9.32835 61.9589 12.0189 59.2684 12.0189 55.9494C12.0189 52.6305 9.32835 49.94 6.00943 49.94C2.69052 49.94 0 52.6305 0 55.9494C0 59.2684 2.69052 61.9589 6.00943 61.9589Z" fill="white"/>
<path fill-rule="evenodd" clip-rule="evenodd" d="M145.335 16.4541C154.842 6.94717 167.433 1.23355 180.757 0.287365C182.066 0.194403 179.948 0.147461 181.269 0.147461L181.269 111.496C179.948 111.496 182.066 111.449 180.757 111.356C167.433 110.41 154.842 104.696 145.335 95.1895C134.894 84.7486 129.028 70.5876 129.028 55.8218C129.028 41.0561 134.894 26.8951 145.335 16.4541ZM148.125 19.2444C156.892 10.4778 168.993 5.08904 181.269 4.15034V14.7418C171.797 15.6534 162.373 19.92 155.587 26.7062C147.865 34.4282 143.527 44.9014 143.527 55.8218C143.527 66.7423 147.865 77.2155 155.587 84.9374C162.373 91.7236 171.797 95.8027 181.269 96.7143L181.269 107.306C168.993 106.367 156.892 101.166 148.125 92.3993C138.424 82.6983 132.974 69.541 132.974 55.8218C132.974 42.1026 138.424 28.9453 148.125 19.2444Z" fill="#FE6C30"/>
<path d="M10.0625 131.947C10.026 132.738 9.8125 133.439 9.42188 134.048C9.03125 134.653 8.48177 135.121 7.77344 135.455C7.07031 135.788 6.26562 135.955 5.35938 135.955C3.86458 135.955 2.6875 135.468 1.82812 134.494C0.96875 133.52 0.539062 132.145 0.539062 130.369V129.806C0.539062 128.692 0.731771 127.718 1.11719 126.884C1.50781 126.046 2.06771 125.4 2.79688 124.947C3.52604 124.488 4.36979 124.259 5.32812 124.259C6.70833 124.259 7.81771 124.624 8.65625 125.353C9.49479 126.077 9.97135 127.077 10.0859 128.353H7.35156C7.33073 127.66 7.15625 127.163 6.82812 126.861C6.5 126.559 6 126.408 5.32812 126.408C4.64583 126.408 4.14583 126.663 3.82812 127.173C3.51042 127.684 3.34375 128.499 3.32812 129.619V130.423C3.32812 131.637 3.47917 132.504 3.78125 133.025C4.08854 133.546 4.61458 133.806 5.35938 133.806C5.98958 133.806 6.47135 133.658 6.80469 133.361C7.13802 133.064 7.3151 132.593 7.33594 131.947H10.0625ZM38.2812 135.798H35.5469V124.423H38.2812V135.798ZM73.6875 135.798H70.9609L66.9297 128.72V135.798H64.1875V124.423H66.9297L70.9531 131.501V124.423H73.6875V135.798ZM106.477 130.978H102.164V133.689H107.258V135.798H99.4219V124.423H107.273V126.541H102.164V128.939H106.477V130.978ZM135.977 124.423L138.516 132.337L141.047 124.423H144.656V135.798H141.906V133.142L142.172 127.705L139.422 135.798H137.609L134.852 127.697L135.117 133.142V135.798H132.375V124.423H135.977ZM177.008 133.673H173.25L172.594 135.798H169.664L173.836 124.423H176.414L180.617 135.798H177.672L177.008 133.673ZM173.906 131.556H176.352L175.125 127.611L173.906 131.556Z" fill="white"/>
</svg>
