<svg width="16" height="16" viewBox="0 0 16 16" fill="none" xmlns="http://www.w3.org/2000/svg">
<mask id="mask0_1962_3078" style="mask-type:alpha" maskUnits="userSpaceOnUse" x="1" y="1" width="14" height="14">
<path fill-rule="evenodd" clip-rule="evenodd" d="M8.00016 1.33334C4.32016 1.33334 1.3335 4.32001 1.3335 8.00001C1.3335 11.68 4.32016 14.6667 8.00016 14.6667C11.6802 14.6667 14.6668 11.68 14.6668 8.00001C14.6668 4.32001 11.6802 1.33334 8.00016 1.33334ZM8.00016 8.66668C7.6335 8.66668 7.3335 8.36668 7.3335 8.00001V5.33334C7.3335 4.96668 7.6335 4.66668 8.00016 4.66668C8.36683 4.66668 8.66683 4.96668 8.66683 5.33334V8.00001C8.66683 8.36668 8.36683 8.66668 8.00016 8.66668ZM7.3335 10V11.3333H8.66683V10H7.3335Z" fill="black"/>
</mask>
<g mask="url(#mask0_1962_3078)">
<rect width="16" height="16" fill="#DA1414"/>
</g>
</svg>
